<svg width="96" height="96" xmlns="http://www.w3.org/2000/svg" xmlns:xlink="http://www.w3.org/1999/xlink" xml:space="preserve" overflow="hidden"><g transform="translate(-270 -312)"><path d="M318 383C316.343 383 315 381.657 315 380L315 347.24 306.12 356.12C304.908 357.25 303.01 357.182 301.88 355.97 300.806 354.818 300.806 353.032 301.88 351.88L315.88 337.88C317.051 336.71 318.949 336.71 320.12 337.88L334.12 351.88C335.25 353.092 335.182 354.99 333.97 356.12 332.818 357.194 331.032 357.194 329.88 356.12L321 347.24 321 380C321 381.657 319.657 383 318 383Z"/><path d="M318 322C297.013 322 280 339.013 280 360 280 380.987 297.013 398 318 398 338.987 398 356 380.987 356 360 356 339.013 338.987 322 318 322ZM318 328C335.673 328 350 342.327 350 360 350 377.673 335.673 392 318 392 300.327 392 286 377.673 286 360 286 342.327 300.327 328 318 328Z"/></g></svg>